<svg width="16" height="16" viewBox="0 0 16 16" fill="none" xmlns="http://www.w3.org/2000/svg">
<path d="M13.9663 4.41674H9.6514L11.1836 1.90273C11.3164 1.68478 11.2474 1.40039 11.0295 1.26756C10.8115 1.13467 10.5271 1.20372 10.3943 1.42168L8.56895 4.41674H7.43152L5.60618 1.42168C5.47335 1.20378 5.18897 1.13477 4.97101 1.26756C4.75305 1.40042 4.68403 1.68478 4.81689 1.90273L6.34907 4.41674H2.03409C1.47573 4.41674 1.02148 4.87098 1.02148 5.42931V13.7875C1.02148 14.3458 1.47573 14.8001 2.03409 14.8001H13.9663C14.5247 14.8001 14.979 14.3458 14.979 13.7875V5.42931C14.9789 4.87098 14.5247 4.41674 13.9663 4.41674ZM10.8095 12.5727C10.8095 12.8767 10.563 13.1232 10.259 13.1232H3.21487C2.91088 13.1231 2.66446 12.8767 2.66446 12.5727V6.6441C2.66446 6.34012 2.91088 6.09366 3.2149 6.09366H10.259C10.563 6.09366 10.8095 6.34012 10.8095 6.6441V12.5727ZM12.8465 12.3968C12.3199 12.3968 11.8914 11.9683 11.8914 11.4417C11.8914 10.915 12.3199 10.4865 12.8465 10.4865C13.3732 10.4865 13.8017 10.915 13.8017 11.4417C13.8017 11.9684 13.3732 12.3968 12.8465 12.3968ZM12.8465 8.73029C12.3199 8.73029 11.8914 8.30183 11.8914 7.77515C11.8914 7.24846 12.3199 6.82 12.8465 6.82C13.3732 6.82 13.8017 7.24846 13.8017 7.77515C13.8017 8.30183 13.3732 8.73029 12.8465 8.73029Z" fill="white" fill-opacity="0.86"/>
</svg>
